<?xml version="1.0" encoding="UTF-8"?>
<!DOCTYPE svg PUBLIC "-//W3C//DTD SVG 1.1//EN" "http://www.w3.org/Graphics/SVG/1.1/DTD/svg11.dtd">
<svg xmlns="http://www.w3.org/2000/svg" version="1.1" width="480px" height="230px" style="shape-rendering:geometricPrecision; text-rendering:geometricPrecision; image-rendering:optimizeQuality; fill-rule:evenodd; clip-rule:evenodd" xmlns:xlink="http://www.w3.org/1999/xlink">
<g><path style="opacity:1" fill="#311d3f" d="M -0.5,-0.5 C 159.5,-0.5 319.5,-0.5 479.5,-0.5C 479.5,76.1667 479.5,152.833 479.5,229.5C 319.5,229.5 159.5,229.5 -0.5,229.5C -0.5,152.833 -0.5,76.1667 -0.5,-0.5 Z"/></g>
<g><path style="opacity:1" fill="#d9be77" d="M 227.5,8.5 C 239.253,7.5887 250.587,8.92204 261.5,12.5C 260.448,12.3505 259.448,12.5172 258.5,13C 259.833,13.6667 259.833,14.3333 258.5,15C 260.513,15.8753 260.513,17.2087 258.5,19C 261.167,19.6667 261.167,20.3333 258.5,21C 259.833,21.6667 259.833,22.3333 258.5,23C 260.513,23.8753 260.513,25.2087 258.5,27C 259.813,29.5123 261.479,31.6789 263.5,33.5C 250.801,31.052 238.135,31.052 225.5,33.5C 224.761,33.631 224.094,33.4643 223.5,33C 224.833,25.6667 224.833,18.3333 223.5,11C 224.858,10.0656 226.192,9.2323 227.5,8.5 Z"/></g>
<g><path style="opacity:1" fill="#caa663" d="M 227.5,8.5 C 226.192,9.2323 224.858,10.0656 223.5,11C 224.833,18.3333 224.833,25.6667 223.5,33C 224.094,33.4643 224.761,33.631 225.5,33.5C 213.741,38.8209 207.575,48.1543 207,61.5C 206.012,80.56 206.512,99.56 208.5,118.5C 206.847,118.34 205.514,117.674 204.5,116.5C 204.833,115.833 205.167,115.167 205.5,114.5C 204.833,113.833 204.167,113.167 203.5,112.5C 204.167,112.5 204.5,112.167 204.5,111.5C 205.354,110.368 205.354,109.035 204.5,107.5C 204.591,105.302 203.925,104.969 202.5,106.5C 201.833,106.5 201.5,106.167 201.5,105.5C 203.262,104.738 204.262,103.404 204.5,101.5C 204.5,100.833 204.5,100.167 204.5,99.5C 204.5,98.8333 204.5,98.1667 204.5,97.5C 204.167,96.8333 203.833,96.1667 203.5,95.5C 205.031,94.0755 204.698,93.4088 202.5,93.5C 202.167,93.5 201.833,93.5 201.5,93.5C 202.476,92.1851 203.476,90.8518 204.5,89.5C 204.376,88.8933 204.043,88.56 203.5,88.5C 202.833,88.5 202.5,88.1667 202.5,87.5C 203.906,87.0269 204.573,86.0269 204.5,84.5C 204.167,83.8333 203.833,83.1667 203.5,82.5C 204.773,81.9232 204.773,81.2565 203.5,80.5C 202.482,81.1925 201.482,81.8592 200.5,82.5C 200.5,81.8333 200.167,81.5 199.5,81.5C 201.27,80.236 202.937,78.736 204.5,77C 203.423,76.5304 202.423,76.6971 201.5,77.5C 201.5,76.8333 201.5,76.1667 201.5,75.5C 203.262,74.7377 204.262,73.4044 204.5,71.5C 204.5,70.8333 204.5,70.1667 204.5,69.5C 204.5,68.8333 204.5,68.1667 204.5,67.5C 204.167,66.8333 203.833,66.1667 203.5,65.5C 203.5,64.8333 203.833,64.5 204.5,64.5C 205.354,63.3684 205.354,62.035 204.5,60.5C 205.463,59.6365 205.463,58.9698 204.5,58.5C 202.313,60.4216 199.98,62.0883 197.5,63.5C 196.5,63.5 195.5,63.5 194.5,63.5C 194.333,49.8293 194.5,36.1626 195,22.5C 195.791,21.255 196.291,19.9217 196.5,18.5C 206.167,13.1668 216.5,9.8335 227.5,8.5 Z"/></g>
<g><path style="opacity:1" fill="#e7d389" d="M 261.5,12.5 C 269.684,14.6598 277.018,18.3264 283.5,23.5C 279.76,22.7415 278.093,24.2415 278.5,28C 278.924,50.8168 278.924,73.6501 278.5,96.5C 277.5,95.8333 276.5,95.1667 275.5,94.5C 270.015,93.6728 264.348,93.1728 258.5,93C 261.167,92.3333 261.167,91.6667 258.5,91C 260.513,89.2087 260.513,87.8753 258.5,87C 259.833,86.3333 259.833,85.6667 258.5,85C 259.756,84.5831 260.423,83.7498 260.5,82.5C 261.962,81.5423 263.295,80.3756 264.5,79C 263.423,78.5304 262.423,78.6971 261.5,79.5C 260.833,79.5 260.5,79.1667 260.5,78.5C 261.962,77.5423 263.295,76.3756 264.5,75C 263.423,74.5304 262.423,74.6971 261.5,75.5C 260.833,75.5 260.167,75.5 259.5,75.5C 259.5,75.1667 259.5,74.8333 259.5,74.5C 264.59,72.8563 269.923,71.8563 275.5,71.5C 278.537,60.9691 277.37,50.6358 272,40.5C 269.584,37.5766 266.75,35.2433 263.5,33.5C 261.479,31.6789 259.813,29.5123 258.5,27C 260.513,25.2087 260.513,23.8753 258.5,23C 259.833,22.3333 259.833,21.6667 258.5,21C 261.167,20.3333 261.167,19.6667 258.5,19C 260.513,17.2087 260.513,15.8753 258.5,15C 259.833,14.3333 259.833,13.6667 258.5,13C 259.448,12.5172 260.448,12.3505 261.5,12.5 Z"/></g>
<g><path style="opacity:1" fill="#c09b5d" d="M 196.5,18.5 C 196.291,19.9217 195.791,21.255 195,22.5C 194.5,36.1626 194.333,49.8293 194.5,63.5C 195.5,63.5 196.5,63.5 197.5,63.5C 196.261,64.212 195.761,65.212 196,66.5C 198.713,64.2805 201.546,62.2805 204.5,60.5C 205.354,62.035 205.354,63.3684 204.5,64.5C 204.103,63.475 203.437,63.3083 202.5,64C 191.892,72.9519 192.225,73.4519 203.5,65.5C 203.833,66.1667 204.167,66.8333 204.5,67.5C 200.709,70.1181 197.043,72.9514 193.5,76C 194.167,76.6667 194.833,76.6667 195.5,76C 198.397,73.59 201.397,71.4233 204.5,69.5C 204.5,70.1667 204.5,70.8333 204.5,71.5C 200.709,74.1181 197.043,76.9514 193.5,80C 196.496,79.3293 199.163,77.8293 201.5,75.5C 201.5,76.1667 201.5,76.8333 201.5,77.5C 199.188,79.636 196.688,81.636 194,83.5C 193.333,84.1667 193.333,84.8333 194,85.5C 195.774,84.035 197.608,82.7017 199.5,81.5C 200.167,81.5 200.5,81.8333 200.5,82.5C 198.519,84.3031 196.352,85.9697 194,87.5C 193.333,88.1667 193.333,88.8333 194,89.5C 197.107,87.0354 200.274,84.7021 203.5,82.5C 203.833,83.1667 204.167,83.8333 204.5,84.5C 200.852,87.1419 197.185,89.8086 193.5,92.5C 194.002,93.521 194.668,93.6877 195.5,93C 197.864,91.1581 200.197,89.3247 202.5,87.5C 202.5,88.1667 202.833,88.5 203.5,88.5C 200.358,91.4686 197.025,94.302 193.5,97C 196.193,96.1595 198.86,94.9929 201.5,93.5C 201.833,93.5 202.167,93.5 202.5,93.5C 199.52,96.1444 196.52,98.811 193.5,101.5C 193.667,101.833 193.833,102.167 194,102.5C 197.044,99.9491 200.211,97.6158 203.5,95.5C 203.833,96.1667 204.167,96.8333 204.5,97.5C 200.715,99.9033 197.048,102.57 193.5,105.5C 194.002,106.521 194.668,106.688 195.5,106C 198.397,103.59 201.397,101.423 204.5,99.5C 204.5,100.167 204.5,100.833 204.5,101.5C 200.709,104.118 197.043,106.951 193.5,110C 196.198,108.859 198.865,107.359 201.5,105.5C 201.5,106.167 201.833,106.5 202.5,106.5C 199.905,108.816 197.239,111.149 194.5,113.5C 194.667,113.833 194.833,114.167 195,114.5C 198.107,112.035 201.274,109.702 204.5,107.5C 205.354,109.035 205.354,110.368 204.5,111.5C 204.565,111.062 204.399,110.728 204,110.5C 200.742,112.88 197.576,115.38 194.5,118C 197.675,116.732 200.675,114.899 203.5,112.5C 204.167,113.167 204.833,113.833 205.5,114.5C 201.458,116.362 197.792,118.862 194.5,122C 198.117,120.929 201.45,119.096 204.5,116.5C 205.514,117.674 206.847,118.34 208.5,118.5C 210.853,123.874 214.186,128.541 218.5,132.5C 216.952,132.821 216.285,133.821 216.5,135.5C 212.474,138.205 208.808,141.205 205.5,144.5C 204.548,143.548 203.548,142.548 202.5,141.5C 202.624,140.893 202.957,140.56 203.5,140.5C 203.56,141.043 203.893,141.376 204.5,141.5C 207.975,139.192 211.308,136.692 214.5,134C 214.167,133.833 213.833,133.667 213.5,133.5C 210.482,135.526 207.482,137.526 204.5,139.5C 204.5,138.833 204.167,138.5 203.5,138.5C 205.812,136.364 208.312,134.364 211,132.5C 211.667,131.833 211.667,131.167 211,130.5C 207.956,133.051 204.789,135.384 201.5,137.5C 201.5,136.833 201.167,136.5 200.5,136.5C 203.144,134.031 205.977,131.698 209,129.5C 209.667,128.833 209.667,128.167 209,127.5C 205.624,130.383 202.124,133.049 198.5,135.5C 196.151,133.475 195.484,131.142 196.5,128.5C 196.44,127.957 196.107,127.624 195.5,127.5C 193.931,138.999 194.264,150.332 196.5,161.5C 193.865,160.189 191.531,158.522 189.5,156.5C 192.598,156.587 192.932,156.087 190.5,155C 193.167,154.333 193.167,153.667 190.5,153C 193.167,152.333 193.167,151.667 190.5,151C 193.167,150.333 193.167,149.667 190.5,149C 193.167,148.333 193.167,147.667 190.5,147C 193.167,146.333 193.167,145.667 190.5,145C 193.167,144.333 193.167,143.667 190.5,143C 193.167,142.333 193.167,141.667 190.5,141C 193.167,140.333 193.167,139.667 190.5,139C 193.167,138.333 193.167,137.667 190.5,137C 193.167,136.333 193.167,135.667 190.5,135C 193.167,134.333 193.167,133.667 190.5,133C 193.167,132.333 193.167,131.667 190.5,131C 193.167,130.333 193.167,129.667 190.5,129C 193.167,128.333 193.167,127.667 190.5,127C 193.167,126.333 193.167,125.667 190.5,125C 193.167,124.333 193.167,123.667 190.5,123C 193.167,122.333 193.167,121.667 190.5,121C 193.167,120.333 193.167,119.667 190.5,119C 193.167,118.333 193.167,117.667 190.5,117C 193.167,116.333 193.167,115.667 190.5,115C 193.167,114.333 193.167,113.667 190.5,113C 193.167,112.333 193.167,111.667 190.5,111C 193.167,110.333 193.167,109.667 190.5,109C 193.167,108.333 193.167,107.667 190.5,107C 193.167,106.333 193.167,105.667 190.5,105C 193.167,104.333 193.167,103.667 190.5,103C 193.167,102.333 193.167,101.667 190.5,101C 193.167,100.333 193.167,99.6667 190.5,99C 193.167,98.3333 193.167,97.6667 190.5,97C 193.167,96.3333 193.167,95.6667 190.5,95C 193.167,94.3333 193.167,93.6667 190.5,93C 193.167,92.3333 193.167,91.6667 190.5,91C 193.167,90.3333 193.167,89.6667 190.5,89C 193.167,88.3333 193.167,87.6667 190.5,87C 193.167,86.3333 193.167,85.6667 190.5,85C 193.167,84.3333 193.167,83.6667 190.5,83C 193.167,82.3333 193.167,81.6667 190.5,81C 193.167,80.3333 193.167,79.6667 190.5,79C 193.167,78.3333 193.167,77.6667 190.5,77C 193.167,76.3333 193.167,75.6667 190.5,75C 193.167,74.3333 193.167,73.6667 190.5,73C 193.167,72.3333 193.167,71.6667 190.5,71C 193.167,70.3333 193.167,69.6667 190.5,69C 193.167,68.3333 193.167,67.6667 190.5,67C 193.167,66.3333 193.167,65.6667 190.5,65C 193.167,64.3333 193.167,63.6667 190.5,63C 193.167,62.3333 193.167,61.6667 190.5,61C 193.167,60.3333 193.167,59.6667 190.5,59C 193.167,58.3333 193.167,57.6667 190.5,57C 193.167,56.3333 193.167,55.6667 190.5,55C 193.167,54.3333 193.167,53.6667 190.5,53C 193.167,52.3333 193.167,51.6667 190.5,51C 193.167,50.3333 193.167,49.6667 190.5,49C 193.167,48.3333 193.167,47.6667 190.5,47C 193.167,46.3333 193.167,45.6667 190.5,45C 193.167,44.3333 193.167,43.6667 190.5,43C 193.167,42.3333 193.167,41.6667 190.5,41C 193.167,40.3333 193.167,39.6667 190.5,39C 193.167,38.3333 193.167,37.6667 190.5,37C 193.167,36.3333 193.167,35.6667 190.5,35C 193.167,34.3333 193.167,33.6667 190.5,33C 193.167,32.3333 193.167,31.6667 190.5,31C 193.167,30.3333 193.167,29.6667 190.5,29C 193.167,28.3333 193.167,27.6667 190.5,27C 193.167,26.3333 193.167,25.6667 190.5,25C 191.167,24.6667 191.833,24.3333 192.5,24C 191.584,23.7216 190.918,23.2216 190.5,22.5C 192.463,21.1798 194.463,19.8465 196.5,18.5 Z"/></g>
<g><path style="opacity:1" fill="#eddd91" d="M 283.5,23.5 C 288.794,27.1266 293.461,31.46 297.5,36.5C 294.402,36.4125 294.068,36.9125 296.5,38C 293.833,38.6667 293.833,39.3333 296.5,40C 295.167,40.6667 295.167,41.3333 296.5,42C 293.833,42.6667 293.833,43.3333 296.5,44C 293.833,44.6667 293.833,45.3333 296.5,46C 293.833,46.6667 293.833,47.3333 296.5,48C 295.167,48.6667 295.167,49.3333 296.5,50C 293.833,50.6667 293.833,51.3333 296.5,52C 293.833,52.6667 293.833,53.3333 296.5,54C 293.833,54.6667 293.833,55.3333 296.5,56C 295.167,56.6667 295.167,57.3333 296.5,58C 293.833,58.6667 293.833,59.3333 296.5,60C 293.833,60.6667 293.833,61.3333 296.5,62C 293.833,62.6667 293.833,63.3333 296.5,64C 295.167,64.6667 295.167,65.3333 296.5,66C 293.833,66.6667 293.833,67.3333 296.5,68C 293.833,68.6667 293.833,69.3333 296.5,70C 293.833,70.6667 293.833,71.3333 296.5,72C 295.167,72.6667 295.167,73.3333 296.5,74C 293.833,74.6667 293.833,75.3333 296.5,76C 293.833,76.6667 293.833,77.3333 296.5,78C 293.833,78.6667 293.833,79.3333 296.5,80C 295.167,80.6667 295.167,81.3333 296.5,82C 293.833,82.6667 293.833,83.3333 296.5,84C 293.833,84.6667 293.833,85.3333 296.5,86C 293.833,86.6667 293.833,87.3333 296.5,88C 295.167,88.6667 295.167,89.3333 296.5,90C 293.833,90.6667 293.833,91.3333 296.5,92C 293.833,92.6667 293.833,93.3333 296.5,94C 293.833,94.6667 293.833,95.3333 296.5,96C 295.167,96.6667 295.167,97.3333 296.5,98C 293.833,98.6667 293.833,99.3333 296.5,100C 293.833,100.667 293.833,101.333 296.5,102C 293.833,102.667 293.833,103.333 296.5,104C 295.167,104.667 295.167,105.333 296.5,106C 293.833,106.667 293.833,107.333 296.5,108C 293.833,108.667 293.833,109.333 296.5,110C 293.833,110.667 293.833,111.333 296.5,112C 295.167,112.667 295.167,113.333 296.5,114C 293.833,114.667 293.833,115.333 296.5,116C 293.833,116.667 293.833,117.333 296.5,118C 293.833,118.667 293.833,119.333 296.5,120C 295.167,120.667 295.167,121.333 296.5,122C 293.833,122.667 293.833,123.333 296.5,124C 293.833,124.667 293.833,125.333 296.5,126C 293.833,126.667 293.833,127.333 296.5,128C 295.167,128.667 295.167,129.333 296.5,130C 293.833,130.667 293.833,131.333 296.5,132C 293.833,132.667 293.833,133.333 296.5,134C 293.833,134.667 293.833,135.333 296.5,136C 295.167,136.667 295.167,137.333 296.5,138C 293.833,138.667 293.833,139.333 296.5,140C 293.833,140.667 293.833,141.333 296.5,142C 294.258,143.007 294.592,143.841 297.5,144.5C 290.261,152.786 281.594,159.12 271.5,163.5C 269.801,163.66 268.134,163.494 266.5,163C 269.167,162.333 269.167,161.667 266.5,161C 269.167,160.333 269.167,159.667 266.5,159C 267.833,158.333 267.833,157.667 266.5,157C 269.167,156.333 269.167,155.667 266.5,155C 269.167,154.333 269.167,153.667 266.5,153C 269.167,152.333 269.167,151.667 266.5,151C 267.833,150.333 267.833,149.667 266.5,149C 269.167,148.333 269.167,147.667 266.5,147C 269.167,146.333 269.167,145.667 266.5,145C 269.167,144.333 269.167,143.667 266.5,143C 267.833,142.333 267.833,141.667 266.5,141C 269.167,140.333 269.167,139.667 266.5,139C 269.167,138.333 269.167,137.667 266.5,137C 269.167,136.333 269.167,135.667 266.5,135C 267.252,134.329 267.586,133.496 267.5,132.5C 274.08,127.975 277.58,121.642 278,113.5C 278.499,107.843 278.666,102.176 278.5,96.5C 278.924,73.6501 278.924,50.8168 278.5,28C 278.093,24.2415 279.76,22.7415 283.5,23.5 Z"/></g>
<g><path style="opacity:1" fill="#c39956" d="M 190.5,22.5 C 190.918,23.2216 191.584,23.7216 192.5,24C 191.833,24.3333 191.167,24.6667 190.5,25C 193.167,25.6667 193.167,26.3333 190.5,27C 193.167,27.6667 193.167,28.3333 190.5,29C 193.167,29.6667 193.167,30.3333 190.5,31C 193.167,31.6667 193.167,32.3333 190.5,33C 193.167,33.6667 193.167,34.3333 190.5,35C 193.167,35.6667 193.167,36.3333 190.5,37C 193.167,37.6667 193.167,38.3333 190.5,39C 193.167,39.6667 193.167,40.3333 190.5,41C 193.167,41.6667 193.167,42.3333 190.5,43C 193.167,43.6667 193.167,44.3333 190.5,45C 193.167,45.6667 193.167,46.3333 190.5,47C 193.167,47.6667 193.167,48.3333 190.5,49C 193.167,49.6667 193.167,50.3333 190.5,51C 193.167,51.6667 193.167,52.3333 190.5,53C 193.167,53.6667 193.167,54.3333 190.5,55C 193.167,55.6667 193.167,56.3333 190.5,57C 193.167,57.6667 193.167,58.3333 190.5,59C 193.167,59.6667 193.167,60.3333 190.5,61C 193.167,61.6667 193.167,62.3333 190.5,63C 193.167,63.6667 193.167,64.3333 190.5,65C 193.167,65.6667 193.167,66.3333 190.5,67C 193.167,67.6667 193.167,68.3333 190.5,69C 193.167,69.6667 193.167,70.3333 190.5,71C 193.167,71.6667 193.167,72.3333 190.5,73C 193.167,73.6667 193.167,74.3333 190.5,75C 193.167,75.6667 193.167,76.3333 190.5,77C 193.167,77.6667 193.167,78.3333 190.5,79C 193.167,79.6667 193.167,80.3333 190.5,81C 193.167,81.6667 193.167,82.3333 190.5,83C 193.167,83.6667 193.167,84.3333 190.5,85C 193.167,85.6667 193.167,86.3333 190.5,87C 193.167,87.6667 193.167,88.3333 190.5,89C 193.167,89.6667 193.167,90.3333 190.5,91C 193.167,91.6667 193.167,92.3333 190.5,93C 193.167,93.6667 193.167,94.3333 190.5,95C 193.167,95.6667 193.167,96.3333 190.5,97C 193.167,97.6667 193.167,98.3333 190.5,99C 193.167,99.6667 193.167,100.333 190.5,101C 193.167,101.667 193.167,102.333 190.5,103C 193.167,103.667 193.167,104.333 190.5,105C 193.167,105.667 193.167,106.333 190.5,107C 193.167,107.667 193.167,108.333 190.5,109C 193.167,109.667 193.167,110.333 190.5,111C 193.167,111.667 193.167,112.333 190.5,113C 193.167,113.667 193.167,114.333 190.5,115C 193.167,115.667 193.167,116.333 190.5,117C 193.167,117.667 193.167,118.333 190.5,119C 193.167,119.667 193.167,120.333 190.5,121C 193.167,121.667 193.167,122.333 190.5,123C 193.167,123.667 193.167,124.333 190.5,125C 193.167,125.667 193.167,126.333 190.5,127C 193.167,127.667 193.167,128.333 190.5,129C 193.167,129.667 193.167,130.333 190.5,131C 193.167,131.667 193.167,132.333 190.5,133C 193.167,133.667 193.167,134.333 190.5,135C 193.167,135.667 193.167,136.333 190.5,137C 193.167,137.667 193.167,138.333 190.5,139C 193.167,139.667 193.167,140.333 190.5,141C 193.167,141.667 193.167,142.333 190.5,143C 193.167,143.667 193.167,144.333 190.5,145C 193.167,145.667 193.167,146.333 190.5,147C 193.167,147.667 193.167,148.333 190.5,149C 193.167,149.667 193.167,150.333 190.5,151C 193.167,151.667 193.167,152.333 190.5,153C 193.167,153.667 193.167,154.333 190.5,155C 192.932,156.087 192.598,156.587 189.5,156.5C 183.609,153.281 178.609,148.948 174.5,143.5C 173.646,108.43 173.312,73.4299 173.5,38.5C 177.88,31.7858 183.547,26.4524 190.5,22.5 Z"/></g>
<g><path style="opacity:1" fill="#321e3f" d="M 263.5,33.5 C 266.75,35.2433 269.584,37.5766 272,40.5C 277.37,50.6358 278.537,60.9691 275.5,71.5C 269.824,71.6661 264.157,71.4994 258.5,71C 258,70.5 257.5,70 257,69.5C 256.667,65.5 256.333,61.5 256,57.5C 255.5,56.3333 254.667,55.5 253.5,55C 246.833,54.3333 240.167,54.3333 233.5,55C 230.349,56.1615 228.849,58.3281 229,61.5C 231.029,59.74 233.196,58.5733 235.5,58C 233.093,60.2848 230.593,62.4514 228,64.5C 227.833,71.3333 227.667,78.1667 227.5,85C 227.399,93.2258 227.899,101.392 229,109.5C 233.25,113.857 238.416,115.357 244.5,114C 247.5,111.833 250.5,109.667 253.5,107.5C 253.833,107.667 254.167,107.833 254.5,108C 252.792,110.043 250.792,111.71 248.5,113C 250.567,113.536 252.401,113.036 254,111.5C 254.333,111.833 254.667,112.167 255,112.5C 256.044,111.377 256.71,110.044 257,108.5C 257.197,103.914 257.697,99.4145 258.5,95C 264.157,94.5006 269.824,94.3339 275.5,94.5C 276.5,95.1667 277.5,95.8333 278.5,96.5C 278.666,102.176 278.499,107.843 278,113.5C 277.58,121.642 274.08,127.975 267.5,132.5C 264.993,133.892 262.327,134.892 259.5,135.5C 248.538,136.432 237.538,136.765 226.5,136.5C 223.784,135.366 221.118,134.033 218.5,132.5C 214.186,128.541 210.853,123.874 208.5,118.5C 206.512,99.56 206.012,80.56 207,61.5C 207.575,48.1543 213.741,38.8209 225.5,33.5C 238.135,31.052 250.801,31.052 263.5,33.5 Z"/></g>
<g><path style="opacity:1" fill="#bb8e4d" d="M 173.5,38.5 C 173.312,73.4299 173.646,108.43 174.5,143.5C 158.884,124.732 152.384,103.065 155,78.5C 157.167,63.1739 163.334,49.8405 173.5,38.5 Z"/></g>
<g><path style="opacity:1" fill="#f4e99d" d="M 297.5,36.5 C 318.46,60.6716 323.627,88.005 313,118.5C 309.597,128.32 304.43,136.987 297.5,144.5C 294.592,143.841 294.258,143.007 296.5,142C 293.833,141.333 293.833,140.667 296.5,140C 293.833,139.333 293.833,138.667 296.5,138C 295.167,137.333 295.167,136.667 296.5,136C 293.833,135.333 293.833,134.667 296.5,134C 293.833,133.333 293.833,132.667 296.5,132C 293.833,131.333 293.833,130.667 296.5,130C 295.167,129.333 295.167,128.667 296.5,128C 293.833,127.333 293.833,126.667 296.5,126C 293.833,125.333 293.833,124.667 296.5,124C 293.833,123.333 293.833,122.667 296.5,122C 295.167,121.333 295.167,120.667 296.5,120C 293.833,119.333 293.833,118.667 296.5,118C 293.833,117.333 293.833,116.667 296.5,116C 293.833,115.333 293.833,114.667 296.5,114C 295.167,113.333 295.167,112.667 296.5,112C 293.833,111.333 293.833,110.667 296.5,110C 293.833,109.333 293.833,108.667 296.5,108C 293.833,107.333 293.833,106.667 296.5,106C 295.167,105.333 295.167,104.667 296.5,104C 293.833,103.333 293.833,102.667 296.5,102C 293.833,101.333 293.833,100.667 296.5,100C 293.833,99.3333 293.833,98.6667 296.5,98C 295.167,97.3333 295.167,96.6667 296.5,96C 293.833,95.3333 293.833,94.6667 296.5,94C 293.833,93.3333 293.833,92.6667 296.5,92C 293.833,91.3333 293.833,90.6667 296.5,90C 295.167,89.3333 295.167,88.6667 296.5,88C 293.833,87.3333 293.833,86.6667 296.5,86C 293.833,85.3333 293.833,84.6667 296.5,84C 293.833,83.3333 293.833,82.6667 296.5,82C 295.167,81.3333 295.167,80.6667 296.5,80C 293.833,79.3333 293.833,78.6667 296.5,78C 293.833,77.3333 293.833,76.6667 296.5,76C 293.833,75.3333 293.833,74.6667 296.5,74C 295.167,73.3333 295.167,72.6667 296.5,72C 293.833,71.3333 293.833,70.6667 296.5,70C 293.833,69.3333 293.833,68.6667 296.5,68C 293.833,67.3333 293.833,66.6667 296.5,66C 295.167,65.3333 295.167,64.6667 296.5,64C 293.833,63.3333 293.833,62.6667 296.5,62C 293.833,61.3333 293.833,60.6667 296.5,60C 293.833,59.3333 293.833,58.6667 296.5,58C 295.167,57.3333 295.167,56.6667 296.5,56C 293.833,55.3333 293.833,54.6667 296.5,54C 293.833,53.3333 293.833,52.6667 296.5,52C 293.833,51.3333 293.833,50.6667 296.5,50C 295.167,49.3333 295.167,48.6667 296.5,48C 293.833,47.3333 293.833,46.6667 296.5,46C 293.833,45.3333 293.833,44.6667 296.5,44C 293.833,43.3333 293.833,42.6667 296.5,42C 295.167,41.3333 295.167,40.6667 296.5,40C 293.833,39.3333 293.833,38.6667 296.5,38C 294.068,36.9125 294.402,36.4125 297.5,36.5 Z"/></g>
<g><path style="opacity:1" fill="#523946" d="M 208.5,46.5 C 209.525,46.8966 209.692,47.5632 209,48.5C 206,50.8333 203,53.1667 200,55.5C 199.333,54.8333 199.333,54.1667 200,53.5C 203.023,51.3024 205.856,48.969 208.5,46.5 Z"/></g>
<g><path style="opacity:1" fill="#462f44" d="M 204.5,53.5 C 205.239,53.369 205.906,53.5357 206.5,54C 203.424,56.6205 200.258,59.1205 197,61.5C 196.833,61.1667 196.667,60.8333 196.5,60.5C 199.239,58.1492 201.905,55.8159 204.5,53.5 Z"/></g>
<g><path style="opacity:1" fill="#412a42" d="M 204.5,60.5 C 201.546,62.2805 198.713,64.2805 196,66.5C 195.761,65.212 196.261,64.212 197.5,63.5C 199.98,62.0883 202.313,60.4216 204.5,58.5C 205.463,58.9698 205.463,59.6365 204.5,60.5 Z"/></g>
<g><path style="opacity:1" fill="#402a42" d="M 204.5,64.5 C 203.833,64.5 203.5,64.8333 203.5,65.5C 192.225,73.4519 191.892,72.9519 202.5,64C 203.437,63.3083 204.103,63.475 204.5,64.5 Z"/></g>
<g><path style="opacity:1" fill="#d6bc78" d="M 275.5,71.5 C 269.923,71.8563 264.59,72.8563 259.5,74.5C 254.882,76.8148 250.549,79.6482 246.5,83C 247.908,83.3152 249.241,82.9819 250.5,82C 253.379,79.6148 256.379,77.4482 259.5,75.5C 260.167,75.5 260.833,75.5 261.5,75.5C 258.69,78.1356 255.69,80.6356 252.5,83C 255.496,82.3293 258.163,80.8293 260.5,78.5C 260.5,79.1667 260.833,79.5 261.5,79.5C 261.047,80.4584 260.381,81.2917 259.5,82C 259.728,82.3988 260.062,82.5654 260.5,82.5C 260.423,83.7498 259.756,84.5831 258.5,85C 259.833,85.6667 259.833,86.3333 258.5,87C 260.513,87.8753 260.513,89.2087 258.5,91C 261.167,91.6667 261.167,92.3333 258.5,93C 264.348,93.1728 270.015,93.6728 275.5,94.5C 269.824,94.3339 264.157,94.5006 258.5,95C 257.697,99.4145 257.197,103.914 257,108.5C 256.71,110.044 256.044,111.377 255,112.5C 254.667,112.167 254.333,111.833 254,111.5C 252.401,113.036 250.567,113.536 248.5,113C 250.792,111.71 252.792,110.043 254.5,108C 254.167,107.833 253.833,107.667 253.5,107.5C 250.5,109.667 247.5,111.833 244.5,114C 238.416,115.357 233.25,113.857 229,109.5C 227.899,101.392 227.399,93.2258 227.5,85C 227.667,78.1667 227.833,71.3333 228,64.5C 230.593,62.4514 233.093,60.2848 235.5,58C 233.196,58.5733 231.029,59.74 229,61.5C 228.849,58.3281 230.349,56.1615 233.5,55C 240.167,54.3333 246.833,54.3333 253.5,55C 254.667,55.5 255.5,56.3333 256,57.5C 256.333,61.5 256.667,65.5 257,69.5C 257.5,70 258,70.5 258.5,71C 264.157,71.4994 269.824,71.6661 275.5,71.5 Z"/></g>
<g><path style="opacity:1" fill="#4a3448" d="M 252.5,64.5 C 253.376,64.3691 254.043,64.7025 254.5,65.5C 251.09,68.288 247.59,70.9546 244,73.5C 243.833,73.1667 243.667,72.8333 243.5,72.5C 246.761,70.0509 249.761,67.3842 252.5,64.5 Z"/></g>
<g><path style="opacity:1" fill="#4d3749" d="M 252.5,60.5 C 253.645,61.7927 253.311,62.9593 251.5,64C 248.801,66.5098 245.801,68.1765 242.5,69C 246.025,66.302 249.358,63.4686 252.5,60.5 Z"/></g>
<g><path style="opacity:1" fill="#402b44" d="M 249.5,58.5 C 251.842,58.7748 251.842,59.6081 249.5,61C 246.801,63.5098 243.801,65.1765 240.5,66C 243.69,63.6356 246.69,61.1356 249.5,58.5 Z"/></g>
<g><path style="opacity:1" fill="#412c44" d="M 245.5,57.5 C 246.239,57.369 246.906,57.5357 247.5,58C 244.5,60.3333 241.5,62.6667 238.5,65C 237.5,65.6667 236.5,65.6667 235.5,65C 239.08,62.7226 242.414,60.2226 245.5,57.5 Z"/></g>
<g><path style="opacity:1" fill="#402b44" d="M 239.5,57.5 C 241.842,57.7748 241.842,58.6081 239.5,60C 236.801,62.5098 233.801,64.1765 230.5,65C 233.69,62.6356 236.69,60.1356 239.5,57.5 Z"/></g>
<g><path style="opacity:1" fill="#463046" d="M 253.5,68.5 C 254.774,69.1894 254.774,70.0228 253.5,71C 250.833,73 248.167,75 245.5,77C 244.668,77.6877 244.002,77.521 243.5,76.5C 247.165,74.1593 250.499,71.4926 253.5,68.5 Z"/></g>
<g><path style="opacity:1" fill="#4c3445" d="M 204.5,67.5 C 204.5,68.1667 204.5,68.8333 204.5,69.5C 201.397,71.4233 198.397,73.59 195.5,76C 194.833,76.6667 194.167,76.6667 193.5,76C 197.043,72.9514 200.709,70.1181 204.5,67.5 Z"/></g>
<g><path style="opacity:1" fill="#533e4b" d="M 259.5,74.5 C 259.5,74.8333 259.5,75.1667 259.5,75.5C 256.379,77.4482 253.379,79.6148 250.5,82C 249.241,82.9819 247.908,83.3152 246.5,83C 250.549,79.6482 254.882,76.8148 259.5,74.5 Z"/></g>
<g><path style="opacity:1" fill="#4a3244" d="M 204.5,71.5 C 204.262,73.4044 203.262,74.7377 201.5,75.5C 199.163,77.8293 196.496,79.3293 193.5,80C 197.043,76.9514 200.709,74.1181 204.5,71.5 Z"/></g>
<g><path style="opacity:1" fill="#493347" d="M 252.5,73.5 C 254.842,73.7748 254.842,74.6081 252.5,76C 250.545,76.9533 248.878,78.2866 247.5,80C 246.241,80.9819 244.908,81.3152 243.5,81C 246.69,78.6356 249.69,76.1356 252.5,73.5 Z"/></g>
<g><path style="opacity:1" fill="#483348" d="M 260.5,82.5 C 260.062,82.5654 259.728,82.3988 259.5,82C 260.381,81.2917 261.047,80.4584 261.5,79.5C 262.423,78.6971 263.423,78.5304 264.5,79C 263.295,80.3756 261.962,81.5423 260.5,82.5 Z"/></g>
<g><path style="opacity:1" fill="#503b4b" d="M 260.5,78.5 C 258.163,80.8293 255.496,82.3293 252.5,83C 255.69,80.6356 258.69,78.1356 261.5,75.5C 262.423,74.6971 263.423,74.5304 264.5,75C 263.295,76.3756 261.962,77.5423 260.5,78.5 Z"/></g>
<g><path style="opacity:1" fill="#4a3344" d="M 199.5,81.5 C 197.608,82.7017 195.774,84.035 194,85.5C 193.333,84.8333 193.333,84.1667 194,83.5C 196.688,81.636 199.188,79.636 201.5,77.5C 202.423,76.6971 203.423,76.5304 204.5,77C 202.937,78.736 201.27,80.236 199.5,81.5 Z"/></g>
<g><path style="opacity:1" fill="#4a3244" d="M 203.5,82.5 C 200.274,84.7021 197.107,87.0354 194,89.5C 193.333,88.8333 193.333,88.1667 194,87.5C 196.352,85.9697 198.519,84.3031 200.5,82.5C 201.482,81.8592 202.482,81.1925 203.5,80.5C 204.773,81.2565 204.773,81.9232 203.5,82.5 Z"/></g>
<g><path style="opacity:1" fill="#422c43" d="M 204.5,84.5 C 204.573,86.0269 203.906,87.0269 202.5,87.5C 200.197,89.3247 197.864,91.1581 195.5,93C 194.668,93.6877 194.002,93.521 193.5,92.5C 197.185,89.8086 200.852,87.1419 204.5,84.5 Z"/></g>
<g><path style="opacity:1" fill="#432c43" d="M 203.5,88.5 C 204.043,88.56 204.376,88.8933 204.5,89.5C 203.476,90.8518 202.476,92.1851 201.5,93.5C 198.86,94.9929 196.193,96.1595 193.5,97C 197.025,94.302 200.358,91.4686 203.5,88.5 Z"/></g>
<g><path style="opacity:1" fill="#3f2942" d="M 202.5,93.5 C 204.698,93.4088 205.031,94.0755 203.5,95.5C 200.211,97.6158 197.044,99.9491 194,102.5C 193.833,102.167 193.667,101.833 193.5,101.5C 196.52,98.811 199.52,96.1444 202.5,93.5 Z"/></g>
<g><path style="opacity:1" fill="#473043" d="M 204.5,97.5 C 204.5,98.1667 204.5,98.8333 204.5,99.5C 201.397,101.423 198.397,103.59 195.5,106C 194.668,106.688 194.002,106.521 193.5,105.5C 197.048,102.57 200.715,99.9033 204.5,97.5 Z"/></g>
<g><path style="opacity:1" fill="#483144" d="M 204.5,101.5 C 204.262,103.404 203.262,104.738 201.5,105.5C 198.865,107.359 196.198,108.859 193.5,110C 197.043,106.951 200.709,104.118 204.5,101.5 Z"/></g>
<g><path style="opacity:1" fill="#4d3749" d="M 249.5,105.5 C 250.552,105.351 251.552,105.517 252.5,106C 250,107.833 247.5,109.667 245,111.5C 244.333,110.833 244.333,110.167 245,109.5C 246.992,108.672 248.492,107.339 249.5,105.5 Z"/></g>
<g><path style="opacity:1" fill="#493144" d="M 204.5,107.5 C 201.274,109.702 198.107,112.035 195,114.5C 194.833,114.167 194.667,113.833 194.5,113.5C 197.239,111.149 199.905,108.816 202.5,106.5C 203.925,104.969 204.591,105.302 204.5,107.5 Z"/></g>
<g><path style="opacity:1" fill="#4c3445" d="M 204.5,111.5 C 204.5,112.167 204.167,112.5 203.5,112.5C 200.675,114.899 197.675,116.732 194.5,118C 197.576,115.38 200.742,112.88 204,110.5C 204.399,110.728 204.565,111.062 204.5,111.5 Z"/></g>
<g><path style="opacity:1" fill="#412b42" d="M 205.5,114.5 C 205.167,115.167 204.833,115.833 204.5,116.5C 201.45,119.096 198.117,120.929 194.5,122C 197.792,118.862 201.458,116.362 205.5,114.5 Z"/></g>
<g><path style="opacity:1" fill="#452e43" d="M 203.5,118.5 C 204.376,118.369 205.043,118.702 205.5,119.5C 202.244,121.711 199.078,124.045 196,126.5C 195.833,126.167 195.667,125.833 195.5,125.5C 198.239,123.149 200.905,120.816 203.5,118.5 Z"/></g>
<g><path style="opacity:1" fill="#483144" d="M 196.5,128.5 C 199.789,126.384 202.956,124.051 206,121.5C 206.667,122.167 206.667,122.833 206,123.5C 203,125.833 200,128.167 197,130.5C 196.536,129.906 196.369,129.239 196.5,128.5 Z"/></g>
<g><path style="opacity:1" fill="#442d43" d="M 206.5,124.5 C 208.028,124.517 208.528,125.184 208,126.5C 194.84,135.847 194.34,135.18 206.5,124.5 Z"/></g>
<g><path style="opacity:1" fill="#442d43" d="M 200.5,136.5 C 199.508,136.672 198.842,136.338 198.5,135.5C 202.124,133.049 205.624,130.383 209,127.5C 209.667,128.167 209.667,128.833 209,129.5C 205.977,131.698 203.144,134.031 200.5,136.5 Z"/></g>
<g><path style="opacity:1" fill="#4b3345" d="M 203.5,138.5 C 201.162,140.011 200.496,139.677 201.5,137.5C 204.789,135.384 207.956,133.051 211,130.5C 211.667,131.167 211.667,131.833 211,132.5C 208.312,134.364 205.812,136.364 203.5,138.5 Z"/></g>
<g><path style="opacity:1" fill="#483247" d="M 241.5,144.5 C 239.208,145.624 237.042,146.957 235,148.5C 234.5,148.333 234,148.167 233.5,148C 235.196,146.824 236.862,145.657 238.5,144.5C 240.837,142.171 243.504,140.671 246.5,140C 244.937,141.736 243.27,143.236 241.5,144.5 Z"/></g>
<g><path style="opacity:1" fill="#e1ca81" d="M 267.5,132.5 C 267.586,133.496 267.252,134.329 266.5,135C 269.167,135.667 269.167,136.333 266.5,137C 269.167,137.667 269.167,138.333 266.5,139C 269.167,139.667 269.167,140.333 266.5,141C 267.833,141.667 267.833,142.333 266.5,143C 269.167,143.667 269.167,144.333 266.5,145C 269.167,145.667 269.167,146.333 266.5,147C 269.167,147.667 269.167,148.333 266.5,149C 267.833,149.667 267.833,150.333 266.5,151C 269.167,151.667 269.167,152.333 266.5,153C 269.167,153.667 269.167,154.333 266.5,155C 269.167,155.667 269.167,156.333 266.5,157C 267.833,157.667 267.833,158.333 266.5,159C 269.167,159.667 269.167,160.333 266.5,161C 269.167,161.667 269.167,162.333 266.5,163C 268.134,163.494 269.801,163.66 271.5,163.5C 264.043,167.427 256.043,169.76 247.5,170.5C 246.047,169.175 246.381,168.342 248.5,168C 247.833,167.667 247.167,167.333 246.5,167C 247.833,166.333 247.833,165.667 246.5,165C 249.167,164.333 249.167,163.667 246.5,163C 247.833,162.333 247.833,161.667 246.5,161C 249.167,160.333 249.167,159.667 246.5,159C 247.833,158.333 247.833,157.667 246.5,157C 249.167,156.333 249.167,155.667 246.5,155C 247.833,154.333 247.833,153.667 246.5,153C 249.167,152.333 249.167,151.667 246.5,151C 247.833,150.333 247.833,149.667 246.5,149C 247.416,148.722 248.082,148.222 248.5,147.5C 248.5,147.167 248.5,146.833 248.5,146.5C 252.88,144.3 256.88,141.467 260.5,138C 260.272,137.601 259.938,137.435 259.5,137.5C 259.5,136.833 259.5,136.167 259.5,135.5C 262.327,134.892 264.993,133.892 267.5,132.5 Z"/></g>
<g><path style="opacity:1" fill="#432d44" d="M 237.5,143.5 C 234.738,145.596 231.738,147.262 228.5,148.5C 231.561,144.91 235.228,142.41 239.5,141C 238.619,141.708 237.953,142.542 237.5,143.5 Z"/></g>
<g><path style="opacity:1" fill="#55404c" d="M 259.5,137.5 C 259.938,137.435 260.272,137.601 260.5,138C 256.88,141.467 252.88,144.3 248.5,146.5C 251.851,143.152 255.518,140.152 259.5,137.5 Z"/></g>
<g><path style="opacity:1" fill="#d9bd76" d="M 237.5,143.5 C 238.167,143.5 238.5,143.833 238.5,144.5C 236.862,145.657 235.196,146.824 233.5,148C 234,148.167 234.5,148.333 235,148.5C 237.042,146.957 239.208,145.624 241.5,144.5C 242.167,144.5 242.5,144.833 242.5,145.5C 241.537,146.363 241.537,147.03 242.5,147.5C 243.852,146.476 245.185,145.476 246.5,144.5C 247.598,145.397 247.598,146.23 246.5,147C 247.094,147.464 247.761,147.631 248.5,147.5C 248.082,148.222 247.416,148.722 246.5,149C 247.833,149.667 247.833,150.333 246.5,151C 249.167,151.667 249.167,152.333 246.5,153C 247.833,153.667 247.833,154.333 246.5,155C 249.167,155.667 249.167,156.333 246.5,157C 247.833,157.667 247.833,158.333 246.5,159C 249.167,159.667 249.167,160.333 246.5,161C 247.833,161.667 247.833,162.333 246.5,163C 249.167,163.667 249.167,164.333 246.5,165C 247.833,165.667 247.833,166.333 246.5,167C 247.167,167.333 247.833,167.667 248.5,168C 246.381,168.342 246.047,169.175 247.5,170.5C 241.021,171.491 234.354,171.824 227.5,171.5C 227.839,163.817 227.505,156.317 226.5,149C 227.094,148.536 227.761,148.369 228.5,148.5C 231.738,147.262 234.738,145.596 237.5,143.5 Z"/></g>
<g><path style="opacity:1" fill="#cba764" d="M 196.5,128.5 C 195.484,131.142 196.151,133.475 198.5,135.5C 198.842,136.338 199.508,136.672 200.5,136.5C 201.167,136.5 201.5,136.833 201.5,137.5C 200.496,139.677 201.162,140.011 203.5,138.5C 204.167,138.5 204.5,138.833 204.5,139.5C 204.5,140.167 204.167,140.5 203.5,140.5C 202.957,140.56 202.624,140.893 202.5,141.5C 203.548,142.548 204.548,143.548 205.5,144.5C 209.88,142.3 213.88,139.467 217.5,136C 217.272,135.601 216.938,135.435 216.5,135.5C 216.285,133.821 216.952,132.821 218.5,132.5C 221.118,134.033 223.784,135.366 226.5,136.5C 227.103,137.635 227.436,138.635 227.5,139.5C 223.716,142.049 220.383,145.049 217.5,148.5C 216.509,155.313 216.175,162.313 216.5,169.5C 209.359,167.926 202.692,165.259 196.5,161.5C 194.264,150.332 193.931,138.999 195.5,127.5C 196.107,127.624 196.44,127.957 196.5,128.5 Z"/></g>
<g><path style="opacity:1" fill="#503847" d="M 222.5,138.5 C 224.337,138.639 224.67,139.306 223.5,140.5C 221.167,142.333 218.833,144.167 216.5,146C 215.241,146.982 213.908,147.315 212.5,147C 216.09,144.386 219.424,141.552 222.5,138.5 Z"/></g>
<g><path style="opacity:1" fill="#4f3746" d="M 216.5,135.5 C 216.938,135.435 217.272,135.601 217.5,136C 213.88,139.467 209.88,142.3 205.5,144.5C 208.808,141.205 212.474,138.205 216.5,135.5 Z"/></g>
<g><path style="opacity:1" fill="#483144" d="M 203.5,140.5 C 204.167,140.5 204.5,140.167 204.5,139.5C 207.482,137.526 210.482,135.526 213.5,133.5C 213.833,133.667 214.167,133.833 214.5,134C 211.308,136.692 207.975,139.192 204.5,141.5C 203.893,141.376 203.56,141.043 203.5,140.5 Z"/></g>
<g><path style="opacity:1" fill="#3d2842" d="M 218.5,137.5 C 220.842,137.775 220.842,138.608 218.5,140C 215.801,142.51 212.801,144.176 209.5,145C 212.69,142.636 215.69,140.136 218.5,137.5 Z"/></g>
<g><path style="opacity:1" fill="#503948" d="M 227.5,139.5 C 229.379,139.393 229.712,139.893 228.5,141C 225.122,144.015 221.456,146.515 217.5,148.5C 220.383,145.049 223.716,142.049 227.5,139.5 Z"/></g>
<g><path style="opacity:1" fill="#ccae6e" d="M 259.5,135.5 C 259.5,136.167 259.5,136.833 259.5,137.5C 255.518,140.152 251.851,143.152 248.5,146.5C 248.5,146.833 248.5,147.167 248.5,147.5C 247.761,147.631 247.094,147.464 246.5,147C 247.598,146.23 247.598,145.397 246.5,144.5C 248.803,142.675 251.136,140.842 253.5,139C 253.167,138.833 252.833,138.667 252.5,138.5C 249.149,140.859 245.815,143.192 242.5,145.5C 242.5,144.833 242.167,144.5 241.5,144.5C 243.27,143.236 244.937,141.736 246.5,140C 243.504,140.671 240.837,142.171 238.5,144.5C 238.5,143.833 238.167,143.5 237.5,143.5C 237.953,142.542 238.619,141.708 239.5,141C 235.228,142.41 231.561,144.91 228.5,148.5C 227.761,148.369 227.094,148.536 226.5,149C 227.505,156.317 227.839,163.817 227.5,171.5C 223.742,171.152 220.076,170.485 216.5,169.5C 216.175,162.313 216.509,155.313 217.5,148.5C 221.456,146.515 225.122,144.015 228.5,141C 229.712,139.893 229.379,139.393 227.5,139.5C 227.436,138.635 227.103,137.635 226.5,136.5C 237.538,136.765 248.538,136.432 259.5,135.5 Z"/></g>
<g><path style="opacity:1" fill="#402b43" d="M 231.5,140.5 C 232.239,140.369 232.906,140.536 233.5,141C 230.25,144.3 226.583,146.634 222.5,148C 225.69,145.636 228.69,143.136 231.5,140.5 Z"/></g>
<g><path style="opacity:1" fill="#473247" d="M 246.5,144.5 C 245.185,145.476 243.852,146.476 242.5,147.5C 241.537,147.03 241.537,146.363 242.5,145.5C 245.815,143.192 249.149,140.859 252.5,138.5C 252.833,138.667 253.167,138.833 253.5,139C 251.136,140.842 248.803,142.675 246.5,144.5 Z"/></g>
<g><path style="opacity:1" fill="#f9f9fa" d="M 112.5,186.5 C 116.182,186.335 119.848,186.501 123.5,187C 126.125,189.196 127.125,192.03 126.5,195.5C 124.833,195.5 123.167,195.5 121.5,195.5C 121.5,194.167 121.5,192.833 121.5,191.5C 119.167,191.5 116.833,191.5 114.5,191.5C 114.5,197.5 114.5,203.5 114.5,209.5C 116.833,209.5 119.167,209.5 121.5,209.5C 121.5,208.167 121.5,206.833 121.5,205.5C 123.167,205.5 124.833,205.5 126.5,205.5C 127.125,208.97 126.125,211.804 123.5,214C 119.833,214.667 116.167,214.667 112.5,214C 111.667,213.167 110.833,212.333 110,211.5C 109.333,204.167 109.333,196.833 110,189.5C 111.045,188.627 111.878,187.627 112.5,186.5 Z"/></g>
<g><path style="opacity:1" fill="#f7f7f8" d="M 136.5,186.5 C 140.514,186.334 144.514,186.501 148.5,187C 149,187.5 149.5,188 150,188.5C 150.667,196.5 150.667,204.5 150,212.5C 149.5,213 149,213.5 148.5,214C 144.5,214.667 140.5,214.667 136.5,214C 135.667,213.167 134.833,212.333 134,211.5C 133.333,204.167 133.333,196.833 134,189.5C 135.045,188.627 135.878,187.627 136.5,186.5 Z"/></g>
<g><path style="opacity:1" fill="#f8f8f9" d="M 158.5,186.5 C 160.167,186.5 161.833,186.5 163.5,186.5C 163.5,194.167 163.5,201.833 163.5,209.5C 166.167,209.5 168.833,209.5 171.5,209.5C 171.5,211.167 171.5,212.833 171.5,214.5C 167.167,214.5 162.833,214.5 158.5,214.5C 158.5,205.167 158.5,195.833 158.5,186.5 Z"/></g>
<g><path style="opacity:1" fill="#a49baa" d="M 184.5,209.5 C 183.508,202.018 183.175,194.352 183.5,186.5C 182.167,186.5 180.833,186.5 179.5,186.5C 179.5,195.833 179.5,205.167 179.5,214.5C 183.833,214.5 188.167,214.5 192.5,214.5C 188.03,215.486 183.363,215.819 178.5,215.5C 178.5,205.5 178.5,195.5 178.5,185.5C 180.5,185.5 182.5,185.5 184.5,185.5C 184.5,193.5 184.5,201.5 184.5,209.5 Z"/></g>
<g><path style="opacity:1" fill="#f8f7f8" d="M 184.5,209.5 C 187.167,209.5 189.833,209.5 192.5,209.5C 192.5,211.167 192.5,212.833 192.5,214.5C 188.167,214.5 183.833,214.5 179.5,214.5C 179.5,205.167 179.5,195.833 179.5,186.5C 180.833,186.5 182.167,186.5 183.5,186.5C 183.175,194.352 183.508,202.018 184.5,209.5 Z"/></g>
<g><path style="opacity:1" fill="#f4f3f5" d="M 199.5,186.5 C 204.167,186.5 208.833,186.5 213.5,186.5C 213.5,188.167 213.5,189.833 213.5,191.5C 210.5,191.5 207.5,191.5 204.5,191.5C 204.5,193.5 204.5,195.5 204.5,197.5C 206.833,197.5 209.167,197.5 211.5,197.5C 211.5,199.5 211.5,201.5 211.5,203.5C 209.167,203.5 206.833,203.5 204.5,203.5C 204.5,205.5 204.5,207.5 204.5,209.5C 207.5,209.5 210.5,209.5 213.5,209.5C 213.5,211.167 213.5,212.833 213.5,214.5C 208.833,214.5 204.167,214.5 199.5,214.5C 199.5,205.167 199.5,195.833 199.5,186.5 Z"/></g>
<g><path style="opacity:1" fill="#f2f1f3" d="M 234.5,214.5 C 230.731,214.756 227.064,214.423 223.5,213.5C 223.217,212.711 222.717,212.044 222,211.5C 221.5,204.174 221.334,196.841 221.5,189.5C 225.628,186.551 230.295,185.718 235.5,187C 238.125,189.196 239.125,192.03 238.5,195.5C 236.5,195.5 234.5,195.5 232.5,195.5C 232.5,194.167 232.5,192.833 232.5,191.5C 230.5,191.5 228.5,191.5 226.5,191.5C 226.5,197.5 226.5,203.5 226.5,209.5C 228.5,209.5 230.5,209.5 232.5,209.5C 232.5,208.167 232.5,206.833 232.5,205.5C 234.5,205.5 236.5,205.5 238.5,205.5C 239.341,209.575 238.008,212.575 234.5,214.5 Z"/></g>
<g><path style="opacity:1" fill="#fdfdfd" d="M 256.5,191.5 C 255.508,198.982 255.175,206.648 255.5,214.5C 254.167,214.5 252.833,214.5 251.5,214.5C 251.825,206.648 251.492,198.982 250.5,191.5C 248.833,191.5 247.167,191.5 245.5,191.5C 245.5,189.833 245.5,188.167 245.5,186.5C 250.833,186.5 256.167,186.5 261.5,186.5C 261.5,188.167 261.5,189.833 261.5,191.5C 259.833,191.5 258.167,191.5 256.5,191.5 Z"/></g>
<g><path style="opacity:1" fill="#94899b" d="M 269.5,186.5 C 269.5,195.833 269.5,205.167 269.5,214.5C 270.833,214.5 272.167,214.5 273.5,214.5C 273.833,214.5 274.167,214.5 274.5,214.5C 272.735,215.461 270.735,215.795 268.5,215.5C 268.173,205.652 268.506,195.986 269.5,186.5 Z"/></g>
<g><path style="opacity:1" fill="#fefffe" d="M 269.5,186.5 C 270.833,186.5 272.167,186.5 273.5,186.5C 273.5,195.833 273.5,205.167 273.5,214.5C 272.167,214.5 270.833,214.5 269.5,214.5C 269.5,205.167 269.5,195.833 269.5,186.5 Z"/></g>
<g><path style="opacity:1" fill="#c0bac5" d="M 269.5,186.5 C 270.919,185.549 272.585,185.216 274.5,185.5C 274.5,195.167 274.5,204.833 274.5,214.5C 274.167,214.5 273.833,214.5 273.5,214.5C 273.5,205.167 273.5,195.833 273.5,186.5C 272.167,186.5 270.833,186.5 269.5,186.5 Z"/></g>
<g><path style="opacity:1" fill="#f8f7f8" d="M 281.5,186.5 C 285.846,186.334 290.179,186.501 294.5,187C 296.949,188.863 297.949,191.363 297.5,194.5C 297.183,200.089 297.016,205.756 297,211.5C 296.167,212.333 295.333,213.167 294.5,214C 290.179,214.499 285.846,214.666 281.5,214.5C 281.5,205.167 281.5,195.833 281.5,186.5 Z"/></g>
<g><path style="opacity:1" fill="#93889a" d="M 305.5,186.5 C 305.5,195.833 305.5,205.167 305.5,214.5C 309.833,214.5 314.167,214.5 318.5,214.5C 314.03,215.486 309.363,215.819 304.5,215.5C 304.173,205.652 304.506,195.986 305.5,186.5 Z"/></g>
<g><path style="opacity:1" fill="#f8f7f8" d="M 305.5,186.5 C 306.833,186.5 308.167,186.5 309.5,186.5C 309.175,194.352 309.508,202.018 310.5,209.5C 313.167,209.5 315.833,209.5 318.5,209.5C 318.5,211.167 318.5,212.833 318.5,214.5C 314.167,214.5 309.833,214.5 305.5,214.5C 305.5,205.167 305.5,195.833 305.5,186.5 Z"/></g>
<g><path style="opacity:1" fill="#a8a0ae" d="M 305.5,186.5 C 306.919,185.549 308.585,185.216 310.5,185.5C 310.5,193.5 310.5,201.5 310.5,209.5C 309.508,202.018 309.175,194.352 309.5,186.5C 308.167,186.5 306.833,186.5 305.5,186.5 Z"/></g>
<g><path style="opacity:1" fill="#f4f3f5" d="M 325.5,186.5 C 330.167,186.5 334.833,186.5 339.5,186.5C 339.5,188.167 339.5,189.833 339.5,191.5C 336.5,191.5 333.5,191.5 330.5,191.5C 330.5,193.5 330.5,195.5 330.5,197.5C 332.833,197.5 335.167,197.5 337.5,197.5C 337.5,199.5 337.5,201.5 337.5,203.5C 335.167,203.5 332.833,203.5 330.5,203.5C 330.5,205.5 330.5,207.5 330.5,209.5C 333.5,209.5 336.5,209.5 339.5,209.5C 339.5,211.167 339.5,212.833 339.5,214.5C 334.833,214.5 330.167,214.5 325.5,214.5C 325.5,205.167 325.5,195.833 325.5,186.5 Z"/></g>
<g><path style="opacity:1" fill="#f6f5f7" d="M 350.5,186.5 C 353.85,186.335 357.183,186.502 360.5,187C 363.125,189.196 364.125,192.03 363.5,195.5C 361.833,195.5 360.167,195.5 358.5,195.5C 358.5,194.167 358.5,192.833 358.5,191.5C 356.5,191.5 354.5,191.5 352.5,191.5C 352.5,193.5 352.5,195.5 352.5,197.5C 362.145,197.331 365.645,201.997 363,211.5C 362.167,212.333 361.333,213.167 360.5,214C 356.833,214.667 353.167,214.667 349.5,214C 347.686,211.519 347.02,208.685 347.5,205.5C 349.167,205.5 350.833,205.5 352.5,205.5C 352.5,206.833 352.5,208.167 352.5,209.5C 354.5,209.5 356.5,209.5 358.5,209.5C 358.5,207.5 358.5,205.5 358.5,203.5C 348.883,203.694 345.383,199.027 348,189.5C 349.045,188.627 349.878,187.627 350.5,186.5 Z"/></g>
<g><path style="opacity:1" fill="#65566f" d="M 221.5,189.5 C 221.334,196.841 221.5,204.174 222,211.5C 222.717,212.044 223.217,212.711 223.5,213.5C 222.504,213.586 221.671,213.252 221,212.5C 220.178,204.655 220.344,196.989 221.5,189.5 Z"/></g>
<g><path style="opacity:1" fill="#3a2748" d="M 138.5,191.5 C 140.833,191.5 143.167,191.5 145.5,191.5C 145.5,197.5 145.5,203.5 145.5,209.5C 143.167,209.5 140.833,209.5 138.5,209.5C 138.5,203.5 138.5,197.5 138.5,191.5 Z"/></g>
<g><path style="opacity:1" fill="#aaa3b1" d="M 250.5,191.5 C 251.492,198.982 251.825,206.648 251.5,214.5C 252.833,214.5 254.167,214.5 255.5,214.5C 255.175,206.648 255.508,198.982 256.5,191.5C 256.5,199.5 256.5,207.5 256.5,215.5C 254.5,215.5 252.5,215.5 250.5,215.5C 250.5,207.5 250.5,199.5 250.5,191.5 Z"/></g>
<g><path style="opacity:1" fill="#402d4c" d="M 286.5,191.5 C 288.5,191.5 290.5,191.5 292.5,191.5C 293.5,196.5 291.5,198.5 286.5,197.5C 286.5,195.5 286.5,193.5 286.5,191.5 Z"/></g>
<g><path style="opacity:1" fill="#402d4d" d="M 286.5,203.5 C 291.5,202.5 293.5,204.5 292.5,209.5C 290.5,209.5 288.5,209.5 286.5,209.5C 286.5,207.5 286.5,205.5 286.5,203.5 Z"/></g>
<g><path style="opacity:1" fill="#817589" d="M 223.5,213.5 C 227.064,214.423 230.731,214.756 234.5,214.5C 232.866,215.161 231.033,215.494 229,215.5C 226.705,215.453 224.871,214.787 223.5,213.5 Z"/></g>
</svg>
